<?xml version="1.0" encoding="utf-8"?>
<!-- Generator: Adobe Illustrator 24.3.0, SVG Export Plug-In . SVG Version: 6.00 Build 0)  -->
<svg version="1.1" id="Layer_1" xmlns="http://www.w3.org/2000/svg" xmlns:xlink="http://www.w3.org/1999/xlink" x="0px" y="0px"
	 viewBox="0 0 30 30" style="enable-background:new 0 0 30 30;" xml:space="preserve">
<style type="text/css">
	.st0{filter:url(#filter-2);}
	.st1{fill-rule:evenodd;clip-rule:evenodd;}
	.st2{fill-rule:evenodd;clip-rule:evenodd;fill:#0A64FF;}
	.st3{fill-rule:evenodd;clip-rule:evenodd;fill:#FFFFFF;}
</style>
<filter  filterUnits="objectBoundingBox" height="226.7%" id="filter-2" width="226.7%" x="-63.3%" y="-56.7%">
	<feOffset  dx="0" dy="2" in="SourceAlpha" result="shadowOffsetOuter1"></feOffset>
	<feGaussianBlur  in="shadowOffsetOuter1" result="shadowBlurOuter1" stdDeviation="6"></feGaussianBlur>
	<feColorMatrix  in="shadowBlurOuter1" type="matrix" values="0 0 0 0 0   0 0 0 0 0   0 0 0 0 0  0 0 0 0.15 0"></feColorMatrix>
</filter>
<desc>Created with Sketch.</desc>
<g id="TABLET---SMALLEST">
	<g id="TABLET---SMALLEST---HOME---1" transform="translate(-526.000000, -339.000000)">
		<g id="SCROLL-ARROWS" transform="translate(30.000000, 351.000000)">
			<g id="NEXT-ARROW" transform="translate(510.000000, 0.000000)">
				<g id="Rectangle" transform="translate(15.000000, 15.000000) rotate(90.000000) translate(-15.000000, -15.000000) ">
					<g class="st0">
						<path id="path-1_2_" class="st1" d="M-7,14h20c2.8,0,5,2.2,5,5v20c0,2.8-2.2,5-5,5H-7c-2.8,0-5-2.2-5-5V19
							C-12,16.2-9.8,14-7,14z"/>
					</g>
					<g>
						<path id="path-1_1_" class="st2" d="M-7,14h20c2.8,0,5,2.2,5,5v20c0,2.8-2.2,5-5,5H-7c-2.8,0-5-2.2-5-5V19
							C-12,16.2-9.8,14-7,14z"/>
					</g>
				</g>
				<polygon id="Triangle" class="st3" points="6.5,3 -3.5,8.5 -3.5,-2.5 				"/>
			</g>
		</g>
	</g>
</g>
</svg>
