<?xml version="1.0" encoding="UTF-8"?>
<svg width="40px" height="40px" viewBox="0 0 40 40" version="1.1" xmlns="http://www.w3.org/2000/svg" xmlns:xlink="http://www.w3.org/1999/xlink">
    <!-- Generator: Sketch 57.1 (83088) - https://sketch.com -->
    <title>LOCK ICON</title>
    <desc>Created with Sketch.</desc>
    <g id="DESKTOP---SMALLEST" stroke="none" stroke-width="1" fill="none" fill-rule="evenodd">
        <g id="LOCK-ICON">
            <circle id="Oval" fill="#FFFFFF" cx="20" cy="20" r="20"></circle>
            <path d="M16.9021008,15.0743438 C16.9021008,13.1316059 18.4310305,11.5503232 20.3108939,11.5503232 L20.5314438,11.5503232 C22.4113073,11.5503232 23.940237,13.1316059 23.940237,15.0743438 L23.940237,17.4482797 L16.9021008,17.4482797 L16.9021008,15.0743438 Z M27.5241727,17.4482797 L26.2689844,17.4482797 L26.2689844,15.0743438 C26.2689844,11.8038113 23.6956861,9.14285714 20.5314438,9.14285714 L20.3108939,9.14285714 C17.1466517,9.14285714 14.5733534,11.8038113 14.5733534,15.0743438 L14.5733534,17.4482797 L12.8193331,17.4482797 C12.0513005,17.4482797 11.4285714,18.0920589 11.4285714,18.8853827 L11.4285714,28.2765121 C11.4285714,29.0711771 12.0513005,29.7142857 12.8193331,29.7142857 L27.5241727,29.7142857 C28.2915566,29.7142857 28.9142857,29.0711771 28.9142857,28.2765121 L28.9142857,18.8853827 C28.9142857,18.0920589 28.2915566,17.4482797 27.5241727,17.4482797 L27.5241727,17.4482797 Z" id="LOCK" fill="#0A64FF"></path>
        </g>
    </g>
</svg>