<?xml version="1.0" encoding="UTF-8"?>
<svg width="40px" height="40px" viewBox="0 0 40 40" version="1.1" xmlns="http://www.w3.org/2000/svg" xmlns:xlink="http://www.w3.org/1999/xlink">
    <!-- Generator: Sketch 57.1 (83088) - https://sketch.com -->
    <title>UNLOCKED ICON</title>
    <desc>Created with Sketch.</desc>
    <g id="DESKTOP---SMALLEST" stroke="none" stroke-width="1" fill="none" fill-rule="evenodd">
        <g id="UNLOCKED-ICON">
            <circle id="Oval" fill="#FFFFFF" cx="20" cy="20" r="20"></circle>
            <path d="M26.622,17.4080567 L25.3778133,17.4080567 L23.06,17.4184397 L16.04,17.4184397 L16.04,15.1232908 C16.04,13.245078 17.5649867,11.7163121 19.44002,11.7163121 L19.6600667,11.7163121 C21.44176,11.7163121 22.90634,13.0969929 23.0478667,14.8459291 L25.3714,14.8459291 C25.2397533,11.7838014 22.7428,9.33333333 19.6903133,9.33333333 L19.4716533,9.33333333 C16.3350133,9.33333333 13.7840667,11.9203972 13.7840667,15.1000567 L13.7840667,17.4080567 L12.04536,17.4080567 C11.2839933,17.4080567 10.6666667,18.0339291 10.6666667,18.8052482 L10.6666667,27.935461 C10.6666667,28.7080567 11.2839933,29.3333333 12.04536,29.3333333 L26.622,29.3333333 C27.3826733,29.3333333 28,28.7080567 28,27.935461 L28,18.8052482 C28,18.0339291 27.3826733,17.4080567 26.622,17.4080567" id="ICON" fill="#AAAAAA"></path>
        </g>
    </g>
</svg>