<?xml version="1.0" encoding="utf-8"?>
<!-- Generator: Adobe Illustrator 24.3.0, SVG Export Plug-In . SVG Version: 6.00 Build 0)  -->
<svg version="1.1" id="Layer_1" xmlns="http://www.w3.org/2000/svg" xmlns:xlink="http://www.w3.org/1999/xlink" x="0px" y="0px"
	 viewBox="0 0 800 400" style="enable-background:new 0 0 800 400;" xml:space="preserve">
<style type="text/css">
	.st0{fill:#FFFFFF;}
	.st1{fill:#009ADE;}
	.st2{fill:#002F87;}
	.st3{fill:#002169;}
</style>
<rect class="st0" width="800" height="400"/>
<g>
	<g>
		<g>
			<g>
				<g>
					<path class="st1" d="M562.2,158h-33c-2.3,0-4.2,1.6-4.5,3.9l-13.3,84.5c-0.3,1.7,1,3.2,2.7,3.2H531c1.6,0,2.9-1.1,3.2-2.7
						l3.8-24c0.4-2.2,2.3-3.9,4.5-3.9h10.4c21.7,0,34.3-10.5,37.5-31.3c1.5-9.1,0.1-16.3-4.2-21.3C581.5,160.9,573.2,158,562.2,158z
						 M566,188.9c-1.8,11.8-10.8,11.8-19.6,11.8h-5l3.5-22.1c0.2-1.3,1.4-2.3,2.7-2.3h2.3c6,0,11.6,0,14.5,3.4
						C566.1,181.7,566.6,184.8,566,188.9z"/>
					<path class="st2" d="M327,158h-33c-2.3,0-4.2,1.6-4.5,3.9l-13.3,84.5c-0.3,1.7,1,3.2,2.7,3.2h15.7c2.3,0,4.2-1.6,4.5-3.9
						l3.6-22.8c0.4-2.2,2.3-3.9,4.5-3.9h10.4c21.7,0,34.3-10.5,37.5-31.3c1.5-9.1,0.1-16.3-4.2-21.3C346.4,160.9,338,158,327,158z
						 M330.8,188.9c-1.8,11.8-10.8,11.8-19.6,11.8h-5l3.5-22.1c0.2-1.3,1.4-2.3,2.7-2.3h2.3c6,0,11.6,0,14.5,3.4
						C330.9,181.7,331.5,184.8,330.8,188.9z"/>
					<path class="st2" d="M425.6,188.5h-15.8c-1.4,0-2.5,1-2.7,2.3l-0.7,4.4l-1.1-1.6c-3.4-5-11-6.6-18.6-6.6
						c-17.4,0-32.3,13.2-35.2,31.8c-1.5,9.2,0.6,18.1,5.9,24.3c4.8,5.7,11.7,8,19.9,8c14.1,0,21.9-9,21.9-9l-0.7,4.4
						c-0.3,1.7,1,3.2,2.7,3.2h14.2c2.3,0,4.2-1.6,4.5-3.9l8.5-54C428.5,190,427.3,188.5,425.6,188.5z M403.6,219.3
						c-1.5,9-8.7,15.1-17.8,15.1c-4.6,0-8.2-1.5-10.6-4.3c-2.3-2.8-3.2-6.7-2.5-11.1c1.4-8.9,8.7-15.2,17.7-15.2
						c4.5,0,8.1,1.5,10.5,4.3C403.3,210.9,404.3,214.9,403.6,219.3z"/>
					<path class="st1" d="M660.7,188.5h-15.8c-1.4,0-2.5,1-2.7,2.3l-0.7,4.4l-1.1-1.6c-3.4-5-11-6.6-18.6-6.6
						c-17.4,0-32.3,13.2-35.2,31.8c-1.5,9.2,0.6,18.1,5.9,24.3c4.8,5.7,11.7,8,19.9,8c14.1,0,21.9-9,21.9-9l-0.7,4.4
						c-0.3,1.7,1,3.2,2.7,3.2h14.2c2.3,0,4.2-1.6,4.5-3.9l8.5-54C663.7,190,662.4,188.5,660.7,188.5z M638.7,219.3
						c-1.5,9-8.7,15.1-17.8,15.1c-4.6,0-8.2-1.5-10.6-4.3c-2.3-2.8-3.2-6.7-2.5-11.1c1.4-8.9,8.7-15.2,17.7-15.2
						c4.5,0,8.1,1.5,10.5,4.3C638.5,210.9,639.4,214.9,638.7,219.3z"/>
					<path class="st2" d="M509.7,188.5h-15.9c-1.5,0-2.9,0.8-3.8,2l-21.9,32.2l-9.3-31c-0.6-1.9-2.4-3.3-4.4-3.3h-15.6
						c-1.9,0-3.2,1.9-2.6,3.6l17.5,51.3l-16.4,23.2c-1.3,1.8,0,4.3,2.2,4.3h15.9c1.5,0,2.9-0.7,3.8-2l52.8-76.2
						C513.2,191,511.9,188.5,509.7,188.5z"/>
					<path class="st1" d="M679.3,160.3l-13.5,86.1c-0.3,1.7,1,3.2,2.7,3.2h13.6c2.3,0,4.2-1.6,4.5-3.9l13.3-84.5
						c0.3-1.7-1-3.2-2.7-3.2h-15.2C680.7,158,679.6,159,679.3,160.3z"/>
				</g>
			</g>
		</g>
	</g>
	<g>
		<path class="st1" d="M211.6,164.1c1.8-11.4,0-19.1-6.2-26.1c-6.8-7.7-19-11-34.6-11h-45.4c-3.2,0-5.9,2.3-6.4,5.5L100,252.4
			c-0.4,2.4,1.5,4.5,3.9,4.5h28l-1.9,12.3c-0.3,2.1,1.3,3.9,3.4,3.9H157c2.8,0,5.2-2,5.6-4.8l0.2-1.2l4.5-28.2l0.3-1.6
			c0.4-2.8,2.8-4.8,5.6-4.8h3.5c22.9,0,40.8-9.3,46.1-36.2c2.2-11.2,1.1-20.6-4.7-27.2C216.3,167.1,214.1,165.4,211.6,164.1
			L211.6,164.1"/>
		<path class="st3" d="M211.6,164.1c1.8-11.4,0-19.1-6.2-26.1c-6.8-7.7-19-11-34.6-11h-45.4c-3.2,0-5.9,2.3-6.4,5.5L100,252.4
			c-0.4,2.4,1.5,4.5,3.9,4.5h28l7-44.7l-0.2,1.4c0.5-3.2,3.2-5.5,6.4-5.5h13.3c26.2,0,46.7-10.6,52.7-41.4
			C211.3,165.8,211.4,164.9,211.6,164.1"/>
		<path class="st2" d="M146.5,164.2c0.3-1.9,1.5-3.5,3.2-4.2c0.7-0.4,1.6-0.6,2.5-0.6h35.6c4.2,0,8.2,0.3,11.7,0.9
			c1,0.2,2,0.4,3,0.6c1,0.2,1.9,0.5,2.8,0.7c0.5,0.1,0.9,0.3,1.3,0.4c1.8,0.6,3.4,1.3,4.9,2.1c1.8-11.4,0-19.1-6.2-26.1
			c-6.8-7.7-19-11-34.6-11h-45.4c-3.2,0-5.9,2.3-6.4,5.5L100,252.4c-0.4,2.4,1.5,4.5,3.9,4.5h28l7-44.7L146.5,164.2z"/>
	</g>
</g>
</svg>
